<?xml version="1.0" encoding="UTF-8" standalone="no"?>
<!-- Created with Inkscape (http://www.inkscape.org/) -->

<svg
   width="210mm"
   height="297mm"
   viewBox="0 0 210 297"
   version="1.1"
   id="svg1"
   xml:space="preserve"
   inkscape:export-filename="bitmap.jpg"
   inkscape:export-xdpi="96"
   inkscape:export-ydpi="96"
   inkscape:version="1.4 (86a8ad7, 2024-10-11)"
   sodipodi:docname="StudentHubLogo.svg"
   xmlns:inkscape="http://www.inkscape.org/namespaces/inkscape"
   xmlns:sodipodi="http://sodipodi.sourceforge.net/DTD/sodipodi-0.dtd"
   xmlns="http://www.w3.org/2000/svg"
   xmlns:svg="http://www.w3.org/2000/svg"><sodipodi:namedview
     id="namedview1"
     pagecolor="#ffffff"
     bordercolor="#999999"
     borderopacity="1"
     inkscape:showpageshadow="2"
     inkscape:pageopacity="0"
     inkscape:pagecheckerboard="0"
     inkscape:deskcolor="#d1d1d1"
     inkscape:document-units="mm"
     inkscape:export-bgcolor="#ffffff00"
     inkscape:zoom="1.1189684"
     inkscape:cx="335.13011"
     inkscape:cy="354.34423"
     inkscape:window-width="1920"
     inkscape:window-height="1057"
     inkscape:window-x="1912"
     inkscape:window-y="-8"
     inkscape:window-maximized="1"
     inkscape:current-layer="layer1" /><defs
     id="defs1"><filter
       inkscape:collect="always"
       style="color-interpolation-filters:sRGB"
       id="filter45"
       x="-0.16512912"
       y="-0.16750918"
       width="1.3491356"
       height="1.3350184"><feGaussianBlur
         inkscape:collect="always"
         stdDeviation="3.8022154"
         id="feGaussianBlur45" /></filter><filter
       inkscape:collect="always"
       style="color-interpolation-filters:sRGB"
       id="filter47"
       x="-0.058693475"
       y="-0.058693475"
       width="1.117387"
       height="1.117387"><feGaussianBlur
         inkscape:collect="always"
         stdDeviation="2.6484496"
         id="feGaussianBlur47" /></filter><filter
       inkscape:collect="always"
       style="color-interpolation-filters:sRGB"
       id="filter48"
       x="-1.8472588"
       y="-0.0056785636"
       width="4.6945176"
       height="1.0113571"><feGaussianBlur
         inkscape:collect="always"
         stdDeviation="0.28211053"
         id="feGaussianBlur48" /></filter><filter
       inkscape:collect="always"
       style="color-interpolation-filters:sRGB"
       id="filter49"
       x="-0.03028086"
       y="-0.063828341"
       width="1.0605617"
       height="1.1276567"><feGaussianBlur
         inkscape:collect="always"
         stdDeviation="0.4628546"
         id="feGaussianBlur49" /></filter><filter
       inkscape:collect="always"
       style="color-interpolation-filters:sRGB"
       id="filter52"
       x="-0.020797316"
       y="-0.091494548"
       width="1.0415857"
       height="1.1830553"><feGaussianBlur
         inkscape:collect="always"
         stdDeviation="0.67305977"
         id="feGaussianBlur52" /></filter><filter
       inkscape:collect="always"
       style="color-interpolation-filters:sRGB"
       id="filter53"
       x="-0.063344673"
       y="-0.040814866"
       width="1.1266893"
       height="1.0816297"><feGaussianBlur
         inkscape:collect="always"
         stdDeviation="1.1295062"
         id="feGaussianBlur53" /></filter><filter
       inkscape:collect="always"
       style="color-interpolation-filters:sRGB"
       id="filter114"
       x="-0.13784407"
       y="-0.43110632"
       width="1.2756881"
       height="1.8622126"><feGaussianBlur
         inkscape:collect="always"
         stdDeviation="0.71348819"
         id="feGaussianBlur114" /></filter><filter
       inkscape:collect="always"
       style="color-interpolation-filters:sRGB"
       id="filter115"
       x="-0.041881699"
       y="-0.35676306"
       width="1.0837634"
       height="1.7135261"><feGaussianBlur
         inkscape:collect="always"
         stdDeviation="0.71348819"
         id="feGaussianBlur115" /></filter><clipPath
       clipPathUnits="userSpaceOnUse"
       id="clipPath229"><path
         id="path230"
         style="fill:#ff0000;fill-opacity:1;fill-rule:nonzero;stroke:none;stroke-width:0.264583"
         d="M 105.42044,44.037623 V 154.70477 c 0.12371,-1.20461 0.2929,-2.40534 0.47129,-3.60237 0.14023,-0.89774 0.31101,-1.78983 0.47645,-2.68304 -3e-5,-0.0106 -0.002,-0.021 -0.002,-0.0315 -0.005,-0.17803 -0.01,-0.35671 -0.03,-0.53382 -0.0245,-0.164 -0.0556,-0.32669 -0.0775,-0.49092 -0.23147,-0.11041 -0.54488,-0.0777 -0.13901,-0.21653 0.0374,-0.0128 0.0742,-0.0275 0.11214,-0.0387 0.001,-2.6e-4 0.002,-2.2e-4 0.003,-5.3e-4 -0.005,-0.0874 -0.0104,-0.17491 -0.0114,-0.2589 -0.0473,-0.01 -0.0942,-0.0209 -0.11007,-0.061 -0.0651,-0.16441 -0.045,-0.35073 -0.0677,-0.52606 0.0599,-0.0376 0.11542,-0.0824 0.17932,-0.11266 0.008,-0.004 0.0281,-0.003 0.0403,-0.006 0.0186,-0.1372 0.044,-0.26758 0.0739,-0.39274 -0.39143,-0.12988 -0.35181,-0.59931 0.20929,-0.64027 0.005,-2.6e-4 0.009,-1.9e-4 0.0139,-5.3e-4 0.3726,-0.78931 1.00265,-1.21062 1.64331,-1.22163 0.66197,-0.0114 1.33209,0.41349 1.73581,1.31155 0.0109,-5.3e-4 0.0241,-0.005 0.0346,-0.005 0.31157,0.008 0.40372,0.30827 0.15813,0.54725 0.0747,0.27061 0.13089,0.56977 0.16072,0.90227 0.021,0.23422 0.0489,0.33028 0.0889,0.58498 0.0507,0.34162 0.0656,0.68724 0.0765,1.03198 0,0.24726 0.0152,0.49335 0.045,0.73845 V 44.037623 Z M 110.5054,161.5581 c -0.019,0.0645 -0.0361,0.12948 -0.0558,0.19378 -0.11547,0.38543 -0.24778,0.76539 -0.37724,1.14619 0.12697,0.19349 0.22868,0.40234 0.32556,0.61185 0.0397,0.0858 0.0735,0.16955 0.10749,0.25321 z m -5.08496,0.54312 v 4.6271 h 2.32751 c -0.3768,-0.32672 -0.73428,-0.79423 -1.03405,-1.42782 -0.0695,-0.14683 -0.0865,-0.17964 -0.0796,-0.17053 -0.21882,-0.29439 -0.45365,-0.5788 -0.56999,-0.93637 -0.0398,-0.12483 -0.088,-0.24746 -0.11938,-0.37466 -0.0581,-0.23538 -0.0772,-0.47369 -0.077,-0.71158 -0.19147,-0.25487 -0.34849,-0.59116 -0.44752,-1.00614 z m 4.49792,1.26349 c -0.004,0.0134 -0.008,0.0269 -0.0119,0.0403 0.001,0.005 0.001,0.02 0.002,0.015 0.005,-0.0191 0.006,-0.0367 0.01,-0.0553 z m 0.58704,3.19153 c -0.0386,0.0607 -0.0799,0.11811 -0.12402,0.17208 h 0.12402 z" /></clipPath><clipPath
       clipPathUnits="userSpaceOnUse"
       id="clipPath235"><path
         id="path235"
         style="fill:#ff0000;fill-opacity:1;fill-rule:nonzero;stroke:none;stroke-width:0.264583"
         d="M 47.568673,44.969348 V 166.34644 H 110.34882 V 44.969348 Z M 106.49531,151.76231 c 0.93552,0.027 1.92271,0.88912 2.20865,2.70423 0.0871,0.5527 0.17523,1.1052 0.26303,1.65778 0.1214,0.78366 0.2205,1.57545 0.41186,2.34559 0.97788,3.9355 -2.92388,5.00007 -3.95221,1.07746 -0.2404,-0.91701 -0.36302,-1.86062 -0.50798,-2.79622 -0.0874,-0.54912 -0.17447,-1.09818 -0.26096,-1.64744 -0.34512,-2.19065 0.70853,-3.374 1.83761,-3.3414 z" /></clipPath></defs><g
     inkscape:label="Layer 1"
     inkscape:groupmode="layer"
     id="layer1"><path
       id="path26-1"
       style="fill:#225500;fill-opacity:1;stroke-width:6.38959;stroke-dasharray:none"
       d="m 107.55209,44.969348 a 60.745359,60.745359 0 0 0 -59.983417,60.695522 60.745359,60.745359 0 0 0 14.739152,39.41206 c 0.120617,-0.0703 0.282554,-0.11623 0.491443,-0.11627 0.178946,-3e-5 0.357972,1.2e-4 0.536918,0 0.207672,0 0.41503,-10e-4 0.622701,-0.001 0.225747,-0.001 0.451759,-0.003 0.677478,-0.007 0.372978,-0.006 0.745528,-0.0162 1.118278,-0.031 0.43086,-0.0173 0.861941,-0.0327 1.292944,-0.046 0.426936,-0.0173 0.853645,-0.0382 1.281059,-0.0372 0.352903,0.006 0.705864,0.0149 1.058333,0.0341 0.429687,0.0226 0.859717,0.0423 1.289844,0.0548 0.491377,0.017 0.982798,0.0205 1.474329,0.008 0.40359,-0.0136 0.806982,-0.0342 1.209228,-0.0708 0.366213,-0.0279 0.731311,-0.0704 1.098124,-0.0904 0.194864,-0.006 0.389697,-0.007 0.584461,-0.004 0.194763,0.003 0.389243,0.0102 0.583943,0.0202 0.249155,0.01 0.4998,0.0269 0.748792,0.004 v -5.1e-4 c 0.423083,-0.0339 0.683554,0.12747 0.766361,0.32969 0.25047,-0.0139 0.500847,-0.0295 0.751376,-0.0424 1.724689,-0.0914 3.45201,-0.12275 5.178495,-0.15865 1.756965,-0.044 3.514156,-0.0753 5.271513,-0.0982 0.318882,-0.005 0.637661,-0.007 0.956531,-0.007 0.956611,-1.2e-4 1.913224,0.0194 2.869075,0.0594 0.741986,0.035 1.482309,0.0959 2.222603,0.15555 0.08248,0.008 0.165063,0.0137 0.247531,0.0212 0.115671,-0.0566 0.26547,-0.092 0.450101,-0.092 h 0.93431 c 0.323843,-0.006 0.647503,0.008 0.971,0.0207 0.359867,0.0129 0.719992,0.0151 1.080038,0.0181 0.522241,-0.006 1.044072,-0.0173 1.566312,-0.0243 0.242555,-0.006 0.485154,-0.007 0.727604,-0.006 0.52638,-0.064 1.05306,-0.13312 1.5813,-0.1788 0.21514,-0.009 0.42924,-0.0138 0.6444,-0.0129 0.21517,8.4e-4 0.43084,0.007 0.64596,0.0176 0.30409,0.0171 0.60913,0.0384 0.9064,0.10904 0.13955,0.0353 0.27806,0.0764 0.416,0.11679 0.54057,-0.0112 1.08086,-0.0275 1.62109,-0.0506 0.0807,-0.003 0.16063,-0.007 0.24133,-0.0103 0.58037,-0.025 0.83206,0.30881 0.74259,0.59738 0.15377,0.0116 0.30553,0.0368 0.45992,0.0403 0.5159,0.024 1.03987,0.0418 1.54099,0.17725 0.0939,0.0428 0.19652,0.0692 0.28112,0.12816 0.056,0.0391 0.10281,0.0824 0.14779,0.12609 0.0168,-0.49533 0.0467,-0.97844 0.0925,-1.44229 -0.13444,-1.03471 -0.22378,-2.07574 -0.23513,-3.12539 -0.0429,-2.45279 -0.012,-4.91158 0.25838,-7.35253 0.14909,-1.2912 0.33404,-2.57749 0.54984,-3.85919 -0.0312,-0.18145 -0.0703,-0.3628 -0.12506,-0.68006 -0.0208,-0.13214 -0.0411,-0.26422 -0.062,-0.39636 -0.159,-1.00576 -0.24091,-1.95652 -0.25838,-2.85409 -0.33565,-1.00443 -0.53158,-2.05115 -0.65526,-3.10731 -0.0317,-0.22461 -0.0384,-0.47221 -0.0734,-0.70641 -7.3e-4,0.0108 -0.001,0.0222 -0.003,0.0289 -0.0203,0.0383 -0.0188,-0.0841 -0.0284,-0.12661 -0.0208,-0.0965 -0.0412,-0.19328 -0.0615,-0.28991 -0.0252,-0.12717 -0.0498,-0.2542 -0.0749,-0.38137 -0.91883,-4.65835 -0.16579,-8.21497 1.42782,-10.51253 -0.0281,-0.47422 -0.0719,-0.94729 -0.0956,-1.42162 -0.1161,-2.95959 -0.2218,-5.91956 -0.34055,-8.87905 -0.033,-0.65924 -0.0663,-1.318374 -0.0982,-1.977655 -0.20054,0.137525 -0.51399,0.01527 -0.61134,-0.438216 -0.0166,-0.07762 -0.008,-0.03629 -0.0258,-0.12454 -0.022,-0.140987 -0.0565,-0.279389 -0.0827,-0.419613 -0.0417,-0.268605 -0.0731,-0.538249 -0.0641,-0.810803 -0.002,-0.257475 -0.003,-0.515949 -0.0429,-0.771012 -0.0326,-0.25994 -0.0536,-0.5212 -0.0506,-0.783415 0.014,-0.330596 0.0515,-0.65985 0.0713,-0.990121 0.0135,-0.400358 -0.003,-0.800381 -0.0202,-1.200443 -0.0148,-0.283786 -0.0278,-0.568728 -0.0739,-0.849561 -0.051,-0.310533 0.0462,-0.515688 0.18604,-0.60358 -0.0164,-0.135294 -0.0326,-0.270771 -0.0481,-0.406177 -0.0344,-0.305958 -0.08,-0.616893 -0.0501,-0.925008 0.0109,-0.112214 0.0446,-0.193139 0.0894,-0.245463 -0.18953,-1.41025 -0.39735,-2.818095 -0.6289,-4.221965 -0.39304,-2.347831 -0.73773,-4.701643 -0.9803,-7.069852 -0.23696,-2.16093 -0.25238,-4.332191 -0.14108,-6.500379 0.10853,-1.80511 0.32682,-3.600639 0.55346,-5.393986 0.23758,-1.609141 0.43046,-3.224999 0.58497,-4.844149 0.16591,-1.600355 0.28453,-3.205363 0.38344,-4.811076 0.0144,-0.234528 0.0113,-0.469654 0.0217,-0.704349 -0.48296,-0.1195 -0.95784,-0.436364 -1.36323,-0.946196 -0.89878,-0.46498 -1.55573,-1.700307 -1.31723,-3.626652 0.0176,-0.146019 0.01,-0.07606 0.0253,-0.209806 0.04,-0.434526 0.0933,-0.867654 0.1509,-1.300179 0.0425,-0.346746 0.0702,-0.694683 0.0589,-1.044381 0.001,-0.01929 -0.006,-0.07175 0.007,-0.05788 0.008,0.0092 0.0111,0.02314 0.0171,0.03462 0.0215,0.0436 0.0406,0.08815 0.0641,0.130741 0.024,0.04356 0.0456,0.0774 0.0672,0.110071 0.0189,-0.08595 0.0328,-0.17295 0.0538,-0.258382 0.0268,-0.124653 0.0571,-0.248733 0.0827,-0.373621 0.008,-0.03669 0.011,-0.07455 0.0212,-0.110587 0.007,-0.02408 -0.007,0.04965 -0.0114,0.07441 h 5.2e-4 c -0.0517,0.351771 -0.0541,0.606103 -0.0346,0.818554 0.0508,0.05982 0.10623,0.11982 0.18965,0.220142 0.13043,0.156849 0.25012,0.285907 0.36071,0.391707 0.32592,-0.04321 0.77362,-0.326181 1.24436,-0.654223 0.0333,-0.21324 0.0582,-0.447587 0.078,-0.694015 -0.51083,-0.478967 -0.88558,-1.299856 -0.90227,-2.495455 -0.002,-0.178877 -0.006,-0.357575 -0.0114,-0.536401 -0.01,-0.305411 -0.0191,-0.611078 -0.0501,-0.91519 -0.0166,-0.14076 -0.0373,-0.280713 -0.0651,-0.419612 z M 63.071086,145.95905 a 60.745359,60.745359 0 0 0 0.521415,0.52141 c 0.02628,-0.0118 0.05426,-0.0222 0.08372,-0.032 -0.145758,-0.14009 -0.217054,-0.31499 -0.195337,-0.48938 -0.04823,5e-5 -0.09647,-4e-5 -0.144694,0 -0.08838,6e-5 -0.176741,2e-5 -0.2651,0 z m 44.230374,1.02474 c 0.002,0.0485 -0.0199,0.0926 -0.0372,0.13746 0.0833,0.003 0.16687,0.004 0.25012,0.009 v -5.2e-4 c 0.44777,0.0285 0.67192,0.24777 0.69298,0.47336 0.0255,-0.01 0.05,-0.0219 0.0754,-0.0315 0.0714,-0.0461 0.22198,-0.0795 0.3514,-0.12609 -0.006,-0.02 -0.01,-0.0266 -0.0155,-0.0434 -0.0345,-0.10575 -0.0622,-0.21207 -0.0894,-0.31936 -0.32091,-0.0389 -0.64352,-0.059 -0.96635,-0.0739 -0.0876,-0.002 -0.17398,-0.0204 -0.26148,-0.0248 z m 1.49655,0.3514 c -0.041,0.0249 -0.0603,0.05 -0.077,0.0785 0.0459,-0.0221 0.0845,-0.0476 0.10749,-0.0785 0.006,-0.008 -0.0215,-0.005 -0.0305,0 z m -44.086714,0.17105 c -0.0071,-0.003 0.0115,0.01 0.0186,0.0129 0.0056,0.002 0.01142,0.003 0.01705,0.005 -0.01222,-0.006 -0.01916,-0.0116 -0.03566,-0.0181 z m 44.744554,1.09864 c -0.21013,0.12387 -0.4472,0.21227 -0.67489,0.29094 -0.10004,0.0374 -0.19342,0.0908 -0.29249,0.13074 -0.0279,0.35676 -0.28475,0.45172 -0.58705,0.54674 -0.17489,0.0411 -0.35184,0.0728 -0.52813,0.10749 0.0268,0.37504 0.0528,0.74961 0.0486,1.12603 -0.0174,0.58911 -0.0909,1.17496 -0.15245,1.76061 -0.0666,0.56859 -0.10045,1.13954 -0.11575,1.71153 -0.0116,0.63196 -0.011,1.26395 -0.0119,1.896 -0.004,0.56147 0.021,1.12146 0.0822,1.67949 0.0496,0.42243 0.15339,0.83532 0.22479,1.25418 0.0586,0.37804 0.0909,0.75914 0.12454,1.13999 0.0311,0.30756 0.0585,0.61574 0.093,0.92294 0.025,0.22211 -0.0116,0.39297 -0.0765,0.52348 0.007,0.0461 0.0175,0.0918 0.0248,0.13798 0.0288,0.21331 0.0509,0.42755 0.0765,0.6413 0.0505,-0.13594 0.0836,-0.27202 0.14263,-0.40773 -0.0304,-1.13102 0.14097,-2.25927 0.43046,-3.34966 0.20889,-0.68167 0.45409,-1.35005 0.74673,-1.99626 -0.0144,-0.35316 -0.0242,-0.71194 -0.0222,-1.08211 0.008,-1.50699 0.15935,-3.00952 0.28887,-4.5098 0.0709,-0.84048 0.12286,-1.6823 0.17828,-2.52388 z m -1.61489,0.81597 v 0.001 c 0.004,0.003 0.009,0.005 0.0129,0.008 0.003,0.002 0.01,-0.005 0.008,-0.006 -0.007,-0.001 -0.0138,-0.001 -0.0207,-0.003 z m -14.880226,0.1571 c -0.221305,0.0117 -0.442746,0.0205 -0.664042,0.0326 0.223737,-0.005 0.447526,-0.008 0.671277,-0.0129 -0.0029,-0.008 -0.0043,-0.0114 -0.0072,-0.0196 z m 11.698506,0.19327 c 9e-5,6.8e-4 -8e-5,0.001 0,0.002 0.01,0.002 0.0194,0.006 0.0295,0.007 0.0102,0.001 -0.0185,-0.005 -0.0295,-0.009 z m -30.524747,3.52382 v 5.1e-4 5.2e-4 c 0.0093,0.004 0.01857,0.008 0.0279,0.0124 8.13e-4,-0.003 1.3e-5,-0.007 0.0016,-0.0103 -0.0098,-9.5e-4 -0.01965,-0.002 -0.02946,-0.003 z m 25.388631,0.0398 c -0.08697,0.002 -0.173989,0.002 -0.260966,0.005 -4.55e-4,0.002 -0.0011,0.004 -0.0015,0.006 0.09078,0.009 0.181589,0.0162 0.272335,0.0253 -0.0026,-0.0121 -0.007,-0.0237 -0.0098,-0.0357 z m 2.741956,4.76508 c -0.004,0.002 -0.009,0.004 -0.0134,0.007 1.2e-4,0.005 3.9e-4,0.009 5.2e-4,0.0129 0.002,9e-5 0.004,4.8e-4 0.006,5.2e-4 0.003,1e-4 0.007,-1.6e-4 0.01,0 -8.1e-4,-0.007 -0.002,-0.0139 -0.003,-0.0207 z m -21.298963,0.41755 c -0.0051,0.003 -0.0098,0.007 -0.01499,0.0103 0.02625,0.0137 0.0528,0.0267 0.07906,0.0403 -0.02111,-0.0172 -0.04296,-0.0335 -0.06408,-0.0506 z m 18.477425,0.40824 c -0.0025,0.001 -0.0056,0.002 -0.0083,0.003 0.0038,0.002 0.0076,0.004 0.01137,0.007 0.0158,0.004 0.0317,0.009 0.04754,0.0129 -7e-6,-5.1e-4 8e-6,-0.001 0,-0.002 -0.01687,-0.007 -0.03379,-0.0134 -0.05064,-0.0202 z m 2.926958,0.17415 c -0.002,3.6e-4 -0.004,0.001 -0.006,0.001 0.007,0.0506 0.012,0.10134 0.0186,0.15193 -0.004,-0.051 -0.008,-0.10199 -0.0129,-0.15296 z m -10.628296,4.57078 a 60.745359,60.745359 0 0 0 12.002366,2.36936 c -0.0127,-0.12492 -0.0182,-0.25065 -0.0248,-0.3762 -0.0642,-0.0334 -0.12967,-0.0718 -0.19689,-0.12196 -0.20412,-0.15232 -0.4664,-0.18101 -0.70952,-0.22841 -0.10728,-0.0195 -0.21607,-0.0285 -0.32349,-0.047 -0.50056,-0.0123 -1.00127,-0.0284 -1.50172,-0.0501 -0.69572,-0.0279 -1.390688,-0.0707 -2.084626,-0.12712 -0.39244,-0.0319 -0.608374,-0.215 -0.660425,-0.4129 -0.775887,-0.0955 -1.552984,-0.18166 -2.326473,-0.29559 -1.32328,-0.19633 -2.640045,-0.43511 -3.956864,-0.67024 -0.07264,-0.0125 -0.144938,-0.0271 -0.217558,-0.0398 z m 14.818216,1.92236 c -0.0896,0.24121 -0.23884,0.44773 -0.59996,0.42892 -0.12311,-0.006 -0.20811,-0.0503 -0.27595,-0.10956 -0.053,0.0243 -0.1094,0.039 -0.16744,0.0377 7.8e-4,0.0352 0.003,0.0703 0.004,0.10542 9.1e-4,0.0506 9e-4,0.0889 0.001,0.13436 a 60.745359,60.745359 0 0 0 1.84743,0.15658 c -0.0493,-0.21712 -0.068,-0.44206 -0.094,-0.66508 -0.0281,0.0391 -0.0635,0.07 -0.11885,0.0785 -0.20553,0.0298 -0.4049,-0.062 -0.59583,-0.16692 z"
       clip-path="url(#clipPath235)" /><path
       id="text38"
       style="font-style:normal;font-variant:normal;font-weight:normal;font-stretch:normal;font-size:99.9877px;font-family:'Ekushey Punarbhaba';-inkscape-font-specification:'Ekushey Punarbhaba';text-align:start;writing-mode:lr-tb;direction:ltr;text-anchor:start;fill:#000000;fill-opacity:1;stroke:#1e252f;stroke-width:2.51784;stroke-dasharray:none;stroke-opacity:1;filter:url(#filter45)"
       transform="matrix(1.0151038,0,0,0.98512094,-14.81667,-3.7041668)"
       d="m 93.532923,75.546915 v 1.713768 h 2.171207 c 1.485531,0 2.894701,0.362138 4.22787,1.085859 0.95226,0.533267 1.58089,1.180669 1.88562,1.94248 0.3809,1.028445 0.57118,3.123351 0.57118,6.284866 v 39.995272 c 0,3.73287 -0.36163,6.07539 -1.08535,7.02766 -1.14272,1.48553 -3.009163,2.22837 -5.59932,2.22837 h -2.171207 v 1.71377 h 26.568137 v -1.71377 h -2.22823 c -1.48553,0 -2.87577,-0.36214 -4.17085,-1.08586 -0.99035,-0.53327 -1.63791,-1.18067 -1.94263,-1.94248 -0.38091,-1.02845 -0.57169,-3.10427 -0.57169,-6.22769 v -18.85512 h 28.79686 v 18.85512 c 0,3.73287 -0.38106,6.07539 -1.14287,7.02766 -1.18081,1.48553 -3.02833,2.22837 -5.54231,2.22837 h -2.1712 v 1.71377 H 155.157 c 0.24933,-0.53533 0.50887,-1.06555 0.78398,-1.58735 0.0215,-0.0433 0.0451,-0.0843 0.0677,-0.12642 h -0.59766 c -1.44744,0 -2.83768,-0.36214 -4.17085,-1.08586 -0.95227,-0.53327 -1.58089,-1.18067 -1.88562,-1.94248 -0.41899,-1.02845 -0.62871,-3.10427 -0.62871,-6.22769 V 86.573888 c 0,-3.047244 0.17186,-5.065799 0.51468,-6.056154 0.38091,-0.990354 1.04738,-1.733193 1.99965,-2.22837 1.33317,-0.68563 2.72341,-1.028681 4.17085,-1.028681 h 1.00746 c -0.15581,-0.218178 -0.21565,-0.441346 -0.19701,-0.638926 -0.12245,-0.187014 -0.24641,-0.372957 -0.36704,-0.561289 -0.0818,-0.04831 -0.15189,-0.08305 -0.25301,-0.145306 -0.19173,-0.118039 -0.37965,-0.242026 -0.5661,-0.368247 h -23.90719 v 1.713768 h 2.1712 c 1.44745,0 2.83769,0.362138 4.17086,1.085859 0.95226,0.533267 1.58089,1.180669 1.88561,1.94248 0.419,1.028445 0.62871,3.123351 0.62871,6.284866 V 104.28597 H 111.18766 V 86.573888 c 0,-3.047244 0.17135,-5.065799 0.51416,-6.056154 0.38091,-0.990354 1.0479,-1.733193 2.00016,-2.22837 1.29508,-0.68563 2.68532,-1.028681 4.17085,-1.028681 h 2.22823 v -1.713768 z" /><path
       style="display:inline;opacity:1;mix-blend-mode:normal;fill:none;fill-opacity:1;fill-rule:evenodd;stroke:#000000;stroke-width:2.64747;stroke-linecap:butt;stroke-linejoin:miter;stroke-dasharray:none;stroke-opacity:1;filter:url(#filter48)"
       d="m 107.42144,44.726394 1.08309,121.312936"
       id="path27-8"
       inkscape:connector-type="polyline"
       inkscape:connector-curvature="0"
       clip-path="url(#clipPath229)" /><path
       style="display:inline;opacity:1;mix-blend-mode:normal;fill:none;fill-opacity:1;fill-rule:evenodd;stroke:#ffffff;stroke-width:2.64747;stroke-linecap:butt;stroke-linejoin:miter;stroke-dasharray:none;stroke-opacity:1"
       d="m 107.49003,44.410099 1.08309,121.312991"
       id="path27"
       inkscape:connector-type="polyline"
       inkscape:connector-curvature="0" /><path
       id="rect52-5"
       style="fill:#1e252f;fill-opacity:0;stroke:#000000;stroke-width:0.6;stroke-dasharray:none;stroke-opacity:1;filter:url(#filter52)"
       d="m 154.04383,145.02681 -92.095673,5.1e-4 v 0.2713 c 0.01999,0.021 0.03832,0.0436 0.05891,0.0641 0.142728,0.14195 0.168308,0.1591 0.325045,0.29456 0.433607,0.36709 0.888997,0.70688 1.326534,1.06918 0.359128,0.29964 0.671142,0.64685 0.959631,1.01338 0.151648,0.18707 0.283413,0.38881 0.421163,0.58601 0.135953,0.18831 0.287081,0.36499 0.427364,0.55035 0.26073,0.37414 0.524379,0.74572 0.791683,1.11518 0.06718,0.0892 0.136462,0.17679 0.204122,0.26562 0.0078,-7.5e-4 0.01507,-0.002 0.02325,-0.003 0.165921,-0.009 0.407768,0.0476 0.746725,0.18758 0.591408,0.24419 1.059447,0.69244 1.512052,1.1312 0.398,0.39316 0.782815,0.79905 1.176156,1.19683 0.107777,0.11053 0.222839,0.21361 0.334346,0.32039 0.431988,0.19613 0.857021,0.407 1.275891,0.62994 0.216942,0.12132 0.427345,0.25407 0.634587,0.39119 0.04247,-9.8e-4 0.08415,-0.003 0.127641,-0.003 0.683092,0.0132 1.490273,0.2537 2.370398,0.80253 0.575773,0.35903 1.066996,0.82982 1.551326,1.30018 0.458548,0.46141 0.897671,0.94135 1.343587,1.4149 0.04815,0.0497 0.09654,0.0992 0.144694,0.14883 0.110025,0.11345 0.20771,0.22701 0.302824,0.34003 0.24893,0.18359 0.506019,0.35537 0.764295,0.52555 0.182339,0.0202 0.364821,0.0384 0.546736,0.0646 1.097965,0.18303 2.180679,0.44608 3.257166,0.72658 3.123416,0.81386 5.542476,2.08224 7.338053,3.58686 0.569523,0.18703 1.14175,0.36633 1.721342,0.51934 0.505168,0.13337 0.799866,0.1965 1.312065,0.31368 0.34814,0.0731 0.698293,0.13625 1.047481,0.20412 0.02257,-0.002 0.04512,-0.004 0.0677,-0.006 1.145519,-0.0906 2.033491,0.12312 2.656169,0.50229 0.139088,0.0237 0.277912,0.0489 0.417029,0.0723 1.379201,0.23445 2.761272,0.45045 4.144447,0.65991 1.26639,0.18629 2.53465,0.36064 3.80649,0.50539 0.32207,0.0337 0.64513,0.059 0.9679,0.0858 0.0379,1.2e-4 0.0758,-0.002 0.11369,-0.002 0.70884,0.004 1.41725,0.0313 2.12441,0.0791 0.014,10e-4 0.0279,0.002 0.0419,0.004 0.66398,-0.031 1.32702,-0.0885 1.98748,-0.16072 0.76011,-0.0925 1.52373,-0.14681 2.28823,-0.18551 0.71657,-0.0305 1.43391,-0.0385 2.15077,-0.06 0.76536,-0.0168 1.52978,-0.0495 2.29495,-0.0729 0.004,-7e-5 0.008,-4.5e-4 0.0114,-5.2e-4 0.41212,-0.22771 0.9108,-0.41466 1.50275,-0.54105 0.22496,-0.0481 0.10125,-0.0226 0.37052,-0.0749 0.43943,-0.0725 0.88074,-0.13087 1.32292,-0.18397 0.51281,-0.0705 1.02441,-0.15159 1.53066,-0.26045 0.65837,-0.13006 1.31706,-0.26049 1.9761,-0.38706 0.041,-0.008 0.0819,-0.0165 0.12299,-0.0243 0.0315,-0.0206 0.0373,-0.0362 0.076,-0.0584 0.0946,-0.0542 0.19349,-0.0993 0.29455,-0.13901 -0.009,-2.9e-4 -0.0122,-0.002 -0.0212,-0.003 -0.006,-1.3e-4 -0.0246,4.4e-4 -0.0186,-5.2e-4 0.0191,-0.004 0.0388,-0.003 0.0584,-0.004 0.14342,-0.0553 0.29119,-0.0999 0.43873,-0.14211 0.13497,-0.0379 0.27137,-0.0694 0.40824,-0.0992 0.1855,-0.19881 0.48584,-0.36036 0.92036,-0.42168 0.10254,-0.0145 0.20464,-0.032 0.30696,-0.0481 0.17757,-0.0825 0.36277,-0.16176 0.56482,-0.23306 0.17531,-0.0619 0.35075,-0.12334 0.52348,-0.19224 0.31397,-0.11587 0.62051,-0.25004 0.92553,-0.38757 0.43457,-0.21454 0.86612,-0.43775 1.28261,-0.68575 0.56597,-0.34034 1.11905,-0.70204 1.69912,-1.01854 0.57287,-0.31465 1.13719,-0.64612 1.73064,-0.92139 0.63234,-0.28538 1.2753,-0.545 1.92805,-0.78031 0.47273,-0.16854 0.94168,-0.35141 1.42679,-0.48215 0.4292,-0.11568 0.74672,-0.16442 0.97358,-0.15812 0.16925,0.005 0.28775,0.0403 0.36484,0.10128 0.58483,-0.28084 1.14716,-0.60332 1.69912,-0.94361 0.43661,-0.27291 0.87655,-0.54089 1.29966,-0.83458 0.19672,-0.13347 0.36974,-0.29851 0.5395,-0.46405 0.10212,-0.10202 0.0492,-0.0497 0.15813,-0.15658 0.42454,-0.41627 0.84525,-0.61138 1.21491,-0.65732 0.0594,-0.0667 0.1344,-0.14 0.23358,-0.22376 0.23957,-0.20232 0.46816,-0.41735 0.69867,-0.62994 0.44151,-0.39781 0.89151,-0.78572 1.34617,-1.1684 0.36896,-0.32017 0.76939,-0.60044 1.17409,-0.87282 0.22482,-0.14514 0.44944,-0.29031 0.67437,-0.43511 0.0787,-0.46858 0.47213,-0.98614 1.25781,-1.34566 0.2303,-0.10538 0.47894,-0.216 0.7152,-0.32452 0.22839,-0.10725 0.46146,-0.20662 0.67955,-0.33435 0.11203,-0.0656 0.14886,-0.0935 0.25631,-0.16692 0.30897,-0.21969 0.58913,-0.47593 0.87127,-0.72812 0.0962,-0.0902 0.20477,-0.16558 0.30489,-0.25114 0.0488,-0.36914 0.23981,-0.78776 0.62425,-1.20923 0.19719,-0.21618 0.42357,-0.4023 0.64957,-0.58705 0.26543,-0.2149 0.5355,-0.42365 0.7922,-0.64905 0.19071,-0.16517 0.38195,-0.32962 0.57464,-0.49248 0.0736,-0.0679 0.15046,-0.13219 0.22686,-0.19689 0.0393,-0.0333 0.0826,-0.0657 0.11731,-0.10438 0.0358,-0.0341 0.071,-0.069 0.10387,-0.10594 0.0163,-0.0182 0.002,-0.007 -0.0119,0.01 0.0286,-0.0436 0.0281,-0.0254 0.0284,-0.0455 0.002,-0.14339 0.0167,-0.27169 0.0408,-0.38705 z" /><path
       id="rect52"
       style="fill:none;fill-opacity:1;stroke:#ffffff;stroke-width:0.6;stroke-dasharray:none;stroke-opacity:1"
       d="m 154.09189,144.85162 -92.173706,0.001 v 0.41341 c 0.02979,0.0321 0.05782,0.0657 0.08888,0.0966 0.142728,0.14195 0.168308,0.1591 0.325045,0.29456 0.433607,0.36709 0.888997,0.70688 1.326534,1.06918 0.359128,0.29964 0.671142,0.64685 0.959631,1.01338 0.151648,0.18707 0.283413,0.38881 0.421163,0.58601 0.135953,0.18831 0.287081,0.36499 0.427364,0.55035 0.26073,0.37414 0.524379,0.74572 0.791683,1.11518 0.06718,0.0892 0.136462,0.17679 0.204122,0.26562 0.0078,-7.5e-4 0.01507,-0.002 0.02325,-0.003 0.165921,-0.009 0.407768,0.0476 0.746725,0.18758 0.591408,0.24419 1.059447,0.69244 1.512052,1.1312 0.398,0.39316 0.782815,0.79905 1.176156,1.19683 0.107777,0.11053 0.222839,0.21361 0.334346,0.32039 0.431988,0.19613 0.857021,0.407 1.275891,0.62994 0.498159,0.27859 0.972861,0.59886 1.414384,0.96066 0.233923,0.19169 0.307351,0.2657 0.523999,0.46612 0.365729,0.34463 0.688939,0.72936 0.982369,1.13637 0.09162,0.13407 0.102958,0.15317 0.134876,0.20257 0.06685,-0.0336 0.145636,-0.0471 0.240812,-0.0326 0.231987,0.0355 0.554304,0.22487 0.997355,0.61857 0.04685,0.0416 0.220621,0.19032 0.285771,0.26252 0.02552,0.0282 -0.05701,-0.051 -0.08217,-0.0796 -0.01136,-0.0129 0.02526,0.024 0.04031,0.032 0.01073,0.006 -0.01829,-0.0168 -0.02739,-0.0248 0.02184,0.015 0.04379,0.03 0.06563,0.045 0.230546,0.13744 0.430909,0.31799 0.652674,0.46767 0.250291,0.1678 0.479554,0.36413 0.701766,0.56689 0.154934,0.14516 0.303407,0.29703 0.453202,0.44752 0.08831,0.0485 0.178611,0.0931 0.267684,0.14004 0.278529,0.13785 0.539654,0.30428 0.796334,0.47801 0.375294,0.1676 0.739556,0.36149 1.102775,0.55242 0.623649,0.32803 1.266946,0.61733 1.915128,0.89297 0.508698,0.20297 1.001154,0.44255 1.495,0.67851 0.347229,0.17071 0.712764,0.29758 1.074353,0.43356 0.372795,0.12581 0.74241,0.25997 1.111043,0.3974 0.03667,-6.9e-4 0.07265,-0.003 0.110071,-0.002 0.679962,0.0128 1.48231,0.25776 2.353861,0.8201 0.162755,0.10501 0.336795,0.19021 0.504362,0.28681 0.371141,0.0734 0.741485,0.14942 1.110527,0.23306 0.385447,0.0912 0.769374,0.18948 1.154968,0.28008 0.529252,0.11598 1.062961,0.21128 1.595251,0.31213 0.629076,0.12172 1.258858,0.23749 1.887741,0.36019 0.522505,0.10336 1.04278,0.2186 1.562178,0.33641 0.424711,0.096 0.845411,0.20779 1.266073,0.31988 0.28051,0.0731 0.560816,0.1468 0.842326,0.216 0.253238,0.0651 0.509194,0.11805 0.766361,0.16485 0.387084,0.0699 0.774801,0.13809 1.163753,0.19689 0.223697,0.0323 0.449217,0.0478 0.673857,0.0713 0.80922,-0.008 1.61819,-0.0247 2.42725,-0.0439 1.02355,-0.0264 2.04724,-0.0443 3.07113,-0.0393 0.70884,0.004 1.41725,0.0308 2.12441,0.0786 0.4819,0.0384 0.9627,0.0874 1.44436,0.12868 0.4953,0.0443 0.99169,0.0791 1.48828,0.1049 0.37022,0.0133 0.73994,0.0363 1.11053,0.0367 0.0596,5e-5 0.11059,-0.003 0.16433,-0.004 0.16501,-0.23188 0.47948,-0.4302 0.96015,-0.51469 0.23083,-0.0405 0.46604,-0.05 0.6997,-0.062 0.41365,-0.0157 0.82741,-0.0277 1.24126,-0.0367 0.46369,-0.007 0.92744,-0.0137 1.39113,-0.0217 0.26374,-0.004 0.52746,-0.005 0.79117,-0.007 0.1393,-0.0832 0.32089,-0.14721 0.5457,-0.17725 0.30257,-0.0404 0.60645,-0.0684 0.91054,-0.0946 0.35592,-0.0286 0.71235,-0.0494 1.06867,-0.0718 0.0598,-0.2354 0.3092,-0.45698 0.77411,-0.52039 0.33345,-0.0454 0.66929,-0.073 1.00356,-0.11162 0.11865,-0.0137 0.23695,-0.0281 0.35553,-0.0424 0.46959,-0.0621 0.93634,-0.14378 1.40405,-0.21911 -0.0537,-0.0967 0.0231,-0.22056 0.3235,-0.39274 0.0946,-0.0542 0.19349,-0.0993 0.29455,-0.13901 -0.009,-2.9e-4 -0.0122,-0.002 -0.0212,-0.003 -0.006,-1.3e-4 -0.0246,4.8e-4 -0.0186,-5.2e-4 0.0194,-0.004 0.0395,-0.004 0.0594,-0.005 0.14308,-0.0551 0.29052,-0.0995 0.4377,-0.14159 0.13517,-0.0379 0.27169,-0.0704 0.40876,-0.10025 0.18552,-0.19851 0.48583,-0.3599 0.91984,-0.42116 0.28537,-0.0403 0.56962,-0.089 0.85421,-0.13436 0.0793,-0.0128 0.15934,-0.0194 0.23875,-0.031 0.38086,-0.0759 0.76613,-0.12906 1.15083,-0.1819 0.11799,-0.0148 0.23618,-0.0254 0.3545,-0.0362 0.0258,-0.17623 -0.0924,-0.30633 -0.50074,-0.33332 -0.002,-1.2e-4 -0.007,3.5e-4 -0.005,0 0.16075,-0.034 0.32288,-0.0622 0.48369,-0.0961 0.21801,-0.0427 0.43179,-0.103 0.64544,-0.1633 0.18646,-0.0526 0.35735,-0.0781 0.5116,-0.0801 0.14588,-0.1471 0.3465,-0.28244 0.61133,-0.39067 0.28658,-0.11712 0.57202,-0.23716 0.85938,-0.35244 0.53265,-0.20346 1.06665,-0.40343 1.59577,-0.61598 0.58976,-0.24093 1.18696,-0.46282 1.78232,-0.68936 0.43117,-0.16113 0.8613,-0.32483 1.29191,-0.48731 0.19481,-0.28656 0.51863,-0.56221 0.99167,-0.78083 0.25523,-0.11796 0.50417,-0.25016 0.75499,-0.37724 0.62393,-0.29204 1.21926,-0.63724 1.80506,-0.99839 0.43661,-0.27291 0.87655,-0.54089 1.29966,-0.83458 0.19672,-0.13347 0.36974,-0.29851 0.5395,-0.46405 0.10212,-0.10202 0.0492,-0.0497 0.15813,-0.15658 0.42456,-0.41628 0.84525,-0.61138 1.21491,-0.65732 0.0594,-0.0667 0.1344,-0.14 0.23358,-0.22376 0.23957,-0.20232 0.46816,-0.41735 0.69867,-0.62994 0.44151,-0.39781 0.89151,-0.78572 1.34617,-1.1684 0.36896,-0.32017 0.76939,-0.60044 1.17409,-0.87282 0.22482,-0.14514 0.44944,-0.29031 0.67437,-0.43511 0.0787,-0.46858 0.47213,-0.98614 1.25781,-1.34566 0.2303,-0.10538 0.47894,-0.216 0.7152,-0.32452 0.22839,-0.10725 0.46146,-0.20662 0.67955,-0.33435 0.11203,-0.0656 0.14886,-0.0935 0.25631,-0.16692 0.30897,-0.21969 0.58913,-0.47593 0.87127,-0.72812 0.0962,-0.0902 0.20477,-0.16558 0.30489,-0.25114 0.0488,-0.36914 0.23981,-0.78776 0.62425,-1.20923 0.19719,-0.21618 0.42357,-0.4023 0.64957,-0.58705 0.26543,-0.2149 0.5355,-0.42365 0.7922,-0.64905 0.19071,-0.16517 0.38195,-0.32962 0.57464,-0.49248 0.0736,-0.0679 0.15046,-0.13219 0.22686,-0.19689 0.0393,-0.0333 0.0826,-0.0657 0.11731,-0.10438 0.0358,-0.0341 0.071,-0.069 0.10387,-0.10594 0.0163,-0.0182 0.002,-0.007 -0.0119,0.0103 0.0286,-0.0436 0.0281,-0.0254 0.0284,-0.0455 0.003,-0.22111 0.0357,-0.40679 0.0889,-0.56224 z" /><circle
       style="fill:none;fill-opacity:1;stroke:#000000;stroke-width:1.6;stroke-dasharray:none;stroke-opacity:1;filter:url(#filter47)"
       id="path25-1-2"
       cx="107.80959"
       cy="104.99638"
       r="60.963158" /><path
       id="text38-5"
       style="font-style:normal;font-variant:normal;font-weight:normal;font-stretch:normal;font-size:99.9877px;font-family:'Ekushey Punarbhaba';-inkscape-font-specification:'Ekushey Punarbhaba';text-align:start;writing-mode:lr-tb;direction:ltr;text-anchor:start;fill:#ffffff;fill-opacity:1;stroke:#1e252f;stroke-width:1.3;stroke-dasharray:none;stroke-opacity:1"
       d="m 79.711404,71.075763 v 1.688269 h 2.204 c 1.50797,0 2.938422,0.35675 4.291727,1.069702 0.966644,0.525333 1.604751,1.163102 1.914078,1.913578 0.386657,1.013143 0.579807,3.076879 0.579807,6.191353 v 39.400155 c 0,3.67733 -0.367087,5.985 -1.101734,6.9231 -1.159974,1.46342 -3.054598,2.19521 -5.683878,2.19521 h -2.204 v 1.68827 h 26.969326 v -1.68827 h -2.26187 c -1.50797,0 -2.91921,-0.35675 -4.23385,-1.0697 -1.005294,-0.52534 -1.662641,-1.1631 -1.971968,-1.91358 -0.386657,-1.01315 -0.580317,-3.05808 -0.580317,-6.13503 v -18.57457 h 29.231785 v 18.57457 c 0,3.67733 -0.38682,5.985 -1.16013,6.9231 -1.19865,1.46342 -3.07406,2.19521 -5.62601,2.19521 h -2.204 v 1.68827 h 24.39179 c 0.2531,-0.52736 0.51656,-1.04969 0.79582,-1.56373 0.0218,-0.0426 0.0458,-0.083 0.0687,-0.12454 h -0.60669 c -1.4693,0 -2.88054,-0.35675 -4.23385,-1.0697 -0.96665,-0.52534 -1.60475,-1.1631 -1.91409,-1.91358 -0.42532,-1.01315 -0.63821,-3.05808 -0.63821,-6.13503 V 81.938665 c 0,-3.001904 0.17445,-4.990424 0.52245,-5.966044 0.38666,-0.975618 1.0632,-1.707405 2.02985,-2.195214 1.35331,-0.675428 2.76455,-1.013375 4.23385,-1.013375 h 0.82683 c -0.19915,-0.228772 -0.40743,-0.449597 -0.6165,-0.66921 -0.29309,-0.300685 -0.58876,-0.598723 -0.88522,-0.896069 -0.0407,-0.04073 -0.081,-0.082 -0.12144,-0.12299 h -23.85332 v 1.688269 h 2.204 c 1.46931,0 2.88055,0.35675 4.23385,1.069702 0.96665,0.525333 1.60477,1.163102 1.91409,1.913578 0.42533,1.013143 0.6382,3.076879 0.6382,6.191353 V 99.387196 H 97.632695 V 81.938665 c 0,-3.001904 0.17395,-4.990424 0.521927,-5.966044 0.386667,-0.975618 1.063724,-1.707405 2.030358,-2.195214 1.31464,-0.675428 2.72588,-1.013375 4.23385,-1.013375 h 2.26187 v -1.688269 z" /><path
       style="fill:none;fill-rule:evenodd;stroke:#ffffff;stroke-width:3.76447;stroke-linecap:butt;stroke-linejoin:miter;stroke-dasharray:none;stroke-opacity:1"
       d="m 129.07611,101.07785 -22.74025,-0.0409"
       id="path38"
       inkscape:connector-type="polyline"
       inkscape:connector-curvature="0" /><circle
       style="fill:none;fill-opacity:1;stroke:#ffffff;stroke-width:1.6;stroke-dasharray:none;stroke-opacity:1"
       id="path25-1"
       cx="107.67933"
       cy="105.05112"
       r="60.963158" /><text
       xml:space="preserve"
       style="font-style:normal;font-variant:normal;font-weight:normal;font-stretch:normal;font-size:185.696px;font-family:'Ekushey Punarbhaba';-inkscape-font-specification:'Ekushey Punarbhaba';text-align:start;writing-mode:lr-tb;direction:ltr;text-anchor:start;mix-blend-mode:normal;fill:#000000;fill-opacity:1;stroke:#1e252f;stroke-width:1.3;stroke-dasharray:none;stroke-opacity:1;filter:url(#filter53)"
       x="55.390869"
       y="162.21291"
       id="text37-2"><tspan
         sodipodi:role="line"
         id="tspan37-3"
         style="fill:#000000;fill-opacity:1;stroke:#1e252f;stroke-width:1.3;stroke-dasharray:none;stroke-opacity:1"
         x="55.390869"
         y="162.21291">s</tspan></text><text
       xml:space="preserve"
       style="font-style:normal;font-variant:normal;font-weight:normal;font-stretch:normal;font-size:185.696px;font-family:'Ekushey Punarbhaba';-inkscape-font-specification:'Ekushey Punarbhaba';text-align:start;writing-mode:lr-tb;direction:ltr;text-anchor:start;fill:#ffffff;fill-opacity:1;stroke:#1e252f;stroke-width:1.3;stroke-dasharray:none;stroke-opacity:1"
       x="55.257133"
       y="162.14819"
       id="text37"><tspan
         sodipodi:role="line"
         id="tspan37"
         style="fill:#ffffff;fill-opacity:1;stroke:#1e252f;stroke-width:1.3;stroke-dasharray:none;stroke-opacity:1"
         x="55.257133"
         y="162.14819">s</tspan></text><path
       style="fill:none;fill-rule:evenodd;stroke:#1e252f;stroke-width:1.24801;stroke-linecap:butt;stroke-linejoin:miter;stroke-dasharray:none;stroke-opacity:1"
       d="m 96.568537,134.18947 -3.866455,-0.8302"
       id="path45"
       inkscape:connector-type="polyline"
       inkscape:connector-curvature="0" /><text
       xml:space="preserve"
       style="font-style:normal;font-variant:normal;font-weight:normal;font-stretch:normal;font-size:8.64628px;font-family:'Ekushey Punarbhaba';-inkscape-font-specification:'Ekushey Punarbhaba';text-align:start;writing-mode:lr-tb;direction:ltr;text-anchor:start;fill:#000000;fill-opacity:1;stroke:none;stroke-width:3.54021;stroke-dasharray:none;stroke-opacity:1;filter:url(#filter49)"
       x="107.35546"
       y="153.39441"
       id="text48-1"
       transform="matrix(0.72768809,0,0,0.72768809,23.9886,39.672491)"><tspan
         sodipodi:role="line"
         style="text-align:center;text-anchor:middle;fill:#000000;fill-opacity:1;stroke:none;stroke-width:3.54021"
         x="107.35546"
         y="153.39441"
         id="tspan49-9" /></text><text
       xml:space="preserve"
       style="font-style:normal;font-variant:normal;font-weight:normal;font-stretch:normal;font-size:6.2918px;font-family:'Ekushey Punarbhaba';-inkscape-font-specification:'Ekushey Punarbhaba';text-align:start;writing-mode:lr-tb;direction:ltr;text-anchor:start;fill:#000000;fill-opacity:1;stroke:none;stroke-width:2.57617;stroke-dasharray:none;stroke-opacity:1;filter:url(#filter115)"
       x="108.20312"
       y="154.2755"
       id="text48-7"><tspan
         sodipodi:role="line"
         style="text-align:center;text-anchor:middle;fill:#000000;fill-opacity:1;stroke:none;stroke-width:2.57617"
         x="108.20312"
         y="154.2755"
         id="tspan49-7">STUDENT HUB</tspan></text><text
       xml:space="preserve"
       style="font-style:normal;font-variant:normal;font-weight:normal;font-stretch:normal;font-size:6.1189px;font-family:'Ekushey Punarbhaba';-inkscape-font-specification:'Ekushey Punarbhaba';text-align:center;letter-spacing:0.0713871px;writing-mode:lr-tb;direction:ltr;text-anchor:middle;fill:#000000;fill-opacity:1;stroke:none;stroke-width:1.15633;stroke-dasharray:none;stroke-opacity:1;filter:url(#filter114)"
       x="104.43953"
       y="168.29681"
       id="text98-9"
       transform="scale(1.0366076,0.9646852)"><tspan
         id="tspan98-3"
         style="letter-spacing:0.0713872px;fill:#000000;fill-opacity:1;stroke:none;stroke-width:1.15633;stroke-opacity:1"
         x="104.47522"
         y="168.29681"
         sodipodi:role="line">KAU</tspan></text><text
       xml:space="preserve"
       style="font-style:normal;font-variant:normal;font-weight:normal;font-stretch:normal;font-size:6.2918px;font-family:'Ekushey Punarbhaba';-inkscape-font-specification:'Ekushey Punarbhaba';text-align:start;writing-mode:lr-tb;direction:ltr;text-anchor:start;fill:#225500;fill-opacity:1;stroke:none;stroke-width:2.57617;stroke-dasharray:none;stroke-opacity:1"
       x="108.23391"
       y="154.18196"
       id="text48"><tspan
         sodipodi:role="line"
         style="text-align:center;text-anchor:middle;fill:#225500;fill-opacity:1;stroke:none;stroke-width:2.57617"
         x="108.23391"
         y="154.18196"
         id="tspan49">STUDENT HUB</tspan></text><text
       xml:space="preserve"
       style="font-style:normal;font-variant:normal;font-weight:normal;font-stretch:normal;font-size:6.1189px;font-family:'Ekushey Punarbhaba';-inkscape-font-specification:'Ekushey Punarbhaba';text-align:center;letter-spacing:0.0713871px;writing-mode:lr-tb;direction:ltr;text-anchor:middle;fill:#225500;fill-opacity:1;stroke:none;stroke-width:1.15633;stroke-dasharray:none;stroke-opacity:1"
       x="104.46924"
       y="168.19984"
       id="text98"
       transform="scale(1.0366076,0.96468519)"><tspan
         id="tspan98"
         style="letter-spacing:0.0713872px;fill:#225500;fill-opacity:1;stroke:none;stroke-width:1.15633;stroke-opacity:1"
         x="104.50493"
         y="168.19984"
         sodipodi:role="line">KAU</tspan></text></g></svg>
