<?xml version="1.0" encoding="UTF-8"?>
<svg xmlns="http://www.w3.org/2000/svg" xmlns:xlink="http://www.w3.org/1999/xlink" width="500" zoomAndPan="magnify" viewBox="0 0 375 374.999991" height="500" preserveAspectRatio="xMidYMid meet" version="1.0">
  <defs>
    <g/>
    <clipPath id="e973a8584a">
      <path d="M 78.277344 172.078125 L 298.222656 172.078125 L 298.222656 197.695312 L 78.277344 197.695312 Z M 78.277344 172.078125 " clip-rule="nonzero"/>
    </clipPath>
  </defs>
  <path stroke-linecap="butt" transform="matrix(0.00181951, -0.749998, 0.749998, 0.00181951, 187.12366, 259.034016)" fill="none" stroke-linejoin="miter" d="M -0.000303268 0.501789 L 206.099269 0.501788 " stroke="#ffffff" stroke-width="1" stroke-opacity="1" stroke-miterlimit="4"/>
  <g fill="#ffffff" fill-opacity="1">
    <g transform="translate(93.591604, 228.61954)">
      <g>
        <path d="M 5.53125 -70 C 5.53125 -74.300781 6.800781 -78.257812 9.34375 -81.875 C 11.894531 -85.5 15.625 -88.414062 20.53125 -90.625 C 25.445312 -92.84375 31.4375 -93.953125 38.5 -93.953125 C 44.144531 -93.953125 49.039062 -93.550781 53.1875 -92.75 C 57.332031 -91.957031 61.1875 -90.945312 64.75 -89.71875 L 64.75 -77.375 L 63.828125 -77.375 C 63.828125 -77.375 63.582031 -77.894531 63.09375 -78.9375 C 62.601562 -79.976562 61.773438 -81.265625 60.609375 -82.796875 C 59.441406 -84.335938 57.890625 -85.875 55.953125 -87.40625 C 54.023438 -88.945312 51.613281 -90.238281 48.71875 -91.28125 C 45.832031 -92.320312 42.425781 -92.84375 38.5 -92.84375 C 32.789062 -92.84375 27.953125 -91.828125 23.984375 -89.796875 C 20.023438 -87.773438 17.03125 -85.195312 15 -82.0625 C 12.976562 -78.9375 11.96875 -75.65625 11.96875 -72.21875 C 11.96875 -69.082031 12.78125 -66.410156 14.40625 -64.203125 C 16.039062 -61.992188 18.253906 -60.085938 21.046875 -58.484375 C 23.835938 -56.890625 26.953125 -55.476562 30.390625 -54.25 C 33.828125 -53.019531 37.390625 -51.789062 41.078125 -50.5625 C 44.765625 -49.332031 48.328125 -47.992188 51.765625 -46.546875 C 55.203125 -45.109375 58.316406 -43.375 61.109375 -41.34375 C 63.910156 -39.320312 66.125 -36.882812 67.75 -34.03125 C 69.375 -31.175781 70.1875 -27.722656 70.1875 -23.671875 C 70.1875 -20.472656 69.382812 -17.351562 67.78125 -14.3125 C 66.1875 -11.28125 63.882812 -8.550781 60.875 -6.125 C 57.875 -3.695312 54.253906 -1.757812 50.015625 -0.3125 C 45.773438 1.125 40.984375 1.84375 35.640625 1.84375 C 31.585938 1.84375 27.71875 1.257812 24.03125 0.09375 C 20.351562 -1.070312 16.976562 -2.53125 13.90625 -4.28125 C 10.832031 -6.03125 8.160156 -7.734375 5.890625 -9.390625 L 5.890625 -21.734375 L 6.8125 -21.734375 C 6.8125 -21.734375 7.285156 -20.992188 8.234375 -19.515625 C 9.191406 -18.046875 10.609375 -16.222656 12.484375 -14.046875 C 14.359375 -11.867188 16.660156 -9.6875 19.390625 -7.5 C 22.117188 -5.320312 25.28125 -3.492188 28.875 -2.015625 C 32.46875 -0.546875 36.441406 0.1875 40.796875 0.1875 C 44.179688 0.1875 47.332031 -0.363281 50.25 -1.46875 C 53.164062 -2.570312 55.710938 -4.078125 57.890625 -5.984375 C 60.066406 -7.890625 61.769531 -10.039062 63 -12.4375 C 64.226562 -14.832031 64.84375 -17.316406 64.84375 -19.890625 C 64.84375 -23.328125 64.015625 -26.289062 62.359375 -28.78125 C 60.703125 -31.269531 58.457031 -33.40625 55.625 -35.1875 C 52.800781 -36.96875 49.625 -38.5625 46.09375 -39.96875 C 42.5625 -41.382812 38.921875 -42.738281 35.171875 -44.03125 C 31.429688 -45.320312 27.796875 -46.703125 24.265625 -48.171875 C 20.734375 -49.648438 17.554688 -51.351562 14.734375 -53.28125 C 11.910156 -55.21875 9.671875 -57.550781 8.015625 -60.28125 C 6.359375 -63.019531 5.53125 -66.257812 5.53125 -70 Z M 5.53125 -70 "/>
      </g>
    </g>
  </g>
  <g fill="#ffffff" fill-opacity="1">
    <g transform="translate(196.283965, 228.61954)">
      <g>
        <path d="M 27.640625 0 L 2.765625 0 L 2.765625 -0.921875 C 5.398438 -0.921875 7.316406 -1.71875 8.515625 -3.3125 C 9.710938 -4.90625 10.460938 -7.515625 10.765625 -11.140625 C 11.078125 -14.765625 11.234375 -19.585938 11.234375 -25.609375 L 11.234375 -66.5 C 11.234375 -72.582031 11.078125 -77.421875 10.765625 -81.015625 C 10.460938 -84.609375 9.710938 -87.203125 8.515625 -88.796875 C 7.316406 -90.390625 5.398438 -91.1875 2.765625 -91.1875 L 2.765625 -92.109375 L 27.640625 -92.109375 L 27.640625 -91.1875 C 24.992188 -91.1875 23.070312 -90.390625 21.875 -88.796875 C 20.675781 -87.203125 19.921875 -84.609375 19.609375 -81.015625 C 19.304688 -77.421875 19.15625 -72.582031 19.15625 -66.5 L 19.15625 -50.390625 C 19.707031 -51.609375 20.9375 -52.816406 22.84375 -54.015625 C 24.75 -55.210938 27.082031 -55.8125 29.84375 -55.8125 C 32.914062 -55.8125 35.832031 -55.335938 38.59375 -54.390625 C 41.351562 -53.441406 44.050781 -52.488281 46.6875 -51.53125 C 49.332031 -50.582031 52.007812 -50.109375 54.71875 -50.109375 C 56.5 -50.109375 58.078125 -50.582031 59.453125 -51.53125 C 60.835938 -52.488281 61.53125 -53.765625 61.53125 -55.359375 L 62.453125 -55.359375 C 62.453125 -52.660156 61.390625 -50.296875 59.265625 -48.265625 C 57.148438 -46.234375 54.28125 -45.21875 50.65625 -45.21875 C 47.832031 -45.21875 45.253906 -45.632812 42.921875 -46.46875 C 40.585938 -47.300781 38.40625 -48.238281 36.375 -49.28125 C 34.351562 -50.320312 32.46875 -51.253906 30.71875 -52.078125 C 28.96875 -52.910156 27.265625 -53.328125 25.609375 -53.328125 C 23.210938 -53.328125 21.535156 -52.515625 20.578125 -50.890625 C 19.628906 -49.265625 19.15625 -47.375 19.15625 -45.21875 L 19.15625 -25.609375 C 19.15625 -19.585938 19.304688 -14.765625 19.609375 -11.140625 C 19.921875 -7.515625 20.675781 -4.90625 21.875 -3.3125 C 23.070312 -1.71875 24.992188 -0.921875 27.640625 -0.921875 Z M 56.734375 -91.1875 L 56.734375 -92.109375 L 81.609375 -92.109375 L 81.609375 -91.1875 C 78.960938 -91.1875 77.039062 -90.390625 75.84375 -88.796875 C 74.65625 -87.203125 73.90625 -84.609375 73.59375 -81.015625 C 73.289062 -77.421875 73.140625 -72.582031 73.140625 -66.5 L 73.140625 -25.609375 C 73.140625 -19.585938 73.289062 -14.765625 73.59375 -11.140625 C 73.90625 -7.515625 74.65625 -4.90625 75.84375 -3.3125 C 77.039062 -1.71875 78.960938 -0.921875 81.609375 -0.921875 L 81.609375 0 L 56.734375 0 L 56.734375 -0.921875 C 59.378906 -0.921875 61.300781 -1.71875 62.5 -3.3125 C 63.695312 -4.90625 64.445312 -7.515625 64.75 -11.140625 C 65.0625 -14.765625 65.21875 -19.585938 65.21875 -25.609375 L 65.21875 -66.5 C 65.21875 -72.582031 65.0625 -77.421875 64.75 -81.015625 C 64.445312 -84.609375 63.695312 -87.203125 62.5 -88.796875 C 61.300781 -90.390625 59.378906 -91.1875 56.734375 -91.1875 Z M 56.734375 -91.1875 "/>
      </g>
    </g>
  </g>
  <g clip-path="url(#e973a8584a)">
    <path fill="#ffffff" d="M 78.277344 172.078125 L 298.21875 172.078125 L 298.21875 197.695312 L 78.277344 197.695312 Z M 78.277344 172.078125 " fill-opacity="1" fill-rule="nonzero"/>
  </g>
  <g fill="#000000" fill-opacity="1" stroke="#000000" stroke-width="3.5" stroke-opacity="1" stroke-linejoin="round" stroke-linecap="round">
    <g transform="translate(112.942336, 189.572433)">
      <g>
        <path d="M 4.46875 0.09375 C 3.707031 0.09375 2.976562 -0.0234375 2.28125 -0.265625 C 1.59375 -0.515625 1.0625 -0.835938 0.6875 -1.234375 L 1.109375 -2.0625 C 1.472656 -1.695312 1.957031 -1.398438 2.5625 -1.171875 C 3.175781 -0.941406 3.8125 -0.828125 4.46875 -0.828125 C 5.375 -0.828125 6.050781 -0.992188 6.5 -1.328125 C 6.957031 -1.660156 7.1875 -2.09375 7.1875 -2.625 C 7.1875 -3.03125 7.0625 -3.351562 6.8125 -3.59375 C 6.570312 -3.84375 6.269531 -4.03125 5.90625 -4.15625 C 5.550781 -4.289062 5.054688 -4.4375 4.421875 -4.59375 C 3.648438 -4.78125 3.035156 -4.960938 2.578125 -5.140625 C 2.128906 -5.328125 1.742188 -5.601562 1.421875 -5.96875 C 1.097656 -6.34375 0.9375 -6.84375 0.9375 -7.46875 C 0.9375 -7.976562 1.070312 -8.441406 1.34375 -8.859375 C 1.613281 -9.285156 2.023438 -9.625 2.578125 -9.875 C 3.140625 -10.132812 3.835938 -10.265625 4.671875 -10.265625 C 5.253906 -10.265625 5.820312 -10.179688 6.375 -10.015625 C 6.9375 -9.859375 7.421875 -9.640625 7.828125 -9.359375 L 7.46875 -8.5 C 7.039062 -8.78125 6.582031 -8.988281 6.09375 -9.125 C 5.613281 -9.269531 5.140625 -9.34375 4.671875 -9.34375 C 3.785156 -9.34375 3.113281 -9.171875 2.65625 -8.828125 C 2.207031 -8.484375 1.984375 -8.039062 1.984375 -7.5 C 1.984375 -7.09375 2.109375 -6.765625 2.359375 -6.515625 C 2.609375 -6.265625 2.914062 -6.070312 3.28125 -5.9375 C 3.65625 -5.8125 4.160156 -5.671875 4.796875 -5.515625 C 5.546875 -5.335938 6.148438 -5.15625 6.609375 -4.96875 C 7.066406 -4.789062 7.453125 -4.519531 7.765625 -4.15625 C 8.085938 -3.800781 8.25 -3.3125 8.25 -2.6875 C 8.25 -2.175781 8.109375 -1.707031 7.828125 -1.28125 C 7.554688 -0.863281 7.132812 -0.53125 6.5625 -0.28125 C 5.988281 -0.03125 5.289062 0.09375 4.46875 0.09375 Z M 4.46875 0.09375 "/>
      </g>
    </g>
  </g>
  <g fill="#000000" fill-opacity="1" stroke="#000000" stroke-width="3.5" stroke-opacity="1" stroke-linejoin="round" stroke-linecap="round">
    <g transform="translate(126.506519, 189.572433)">
      <g>
        <path d="M 3.625 -9.234375 L 0.0625 -9.234375 L 0.0625 -10.171875 L 8.28125 -10.171875 L 8.28125 -9.234375 L 4.703125 -9.234375 L 4.703125 0 L 3.625 0 Z M 3.625 -9.234375 "/>
      </g>
    </g>
  </g>
  <g fill="#000000" fill-opacity="1" stroke="#000000" stroke-width="3.5" stroke-opacity="1" stroke-linejoin="round" stroke-linecap="round">
    <g transform="translate(139.475404, 189.572433)">
      <g>
        <path d="M 5.75 0.09375 C 4.4375 0.09375 3.410156 -0.28125 2.671875 -1.03125 C 1.929688 -1.789062 1.5625 -2.894531 1.5625 -4.34375 L 1.5625 -10.171875 L 2.640625 -10.171875 L 2.640625 -4.390625 C 2.640625 -3.203125 2.90625 -2.316406 3.4375 -1.734375 C 3.976562 -1.160156 4.75 -0.875 5.75 -0.875 C 6.769531 -0.875 7.546875 -1.160156 8.078125 -1.734375 C 8.609375 -2.316406 8.875 -3.203125 8.875 -4.390625 L 8.875 -10.171875 L 9.921875 -10.171875 L 9.921875 -4.34375 C 9.921875 -2.894531 9.554688 -1.789062 8.828125 -1.03125 C 8.097656 -0.28125 7.070312 0.09375 5.75 0.09375 Z M 5.75 0.09375 "/>
      </g>
    </g>
  </g>
  <g fill="#000000" fill-opacity="1" stroke="#000000" stroke-width="3.5" stroke-opacity="1" stroke-linejoin="round" stroke-linecap="round">
    <g transform="translate(155.609541, 189.572433)">
      <g>
        <path d="M 1.65625 -10.171875 L 5.796875 -10.171875 C 6.867188 -10.171875 7.816406 -9.953125 8.640625 -9.515625 C 9.460938 -9.085938 10.101562 -8.488281 10.5625 -7.71875 C 11.019531 -6.945312 11.25 -6.066406 11.25 -5.078125 C 11.25 -4.097656 11.019531 -3.222656 10.5625 -2.453125 C 10.101562 -1.679688 9.460938 -1.078125 8.640625 -0.640625 C 7.816406 -0.210938 6.867188 0 5.796875 0 L 1.65625 0 Z M 5.734375 -0.9375 C 6.628906 -0.9375 7.410156 -1.109375 8.078125 -1.453125 C 8.742188 -1.804688 9.257812 -2.296875 9.625 -2.921875 C 10 -3.546875 10.1875 -4.265625 10.1875 -5.078125 C 10.1875 -5.898438 10 -6.625 9.625 -7.25 C 9.257812 -7.875 8.742188 -8.359375 8.078125 -8.703125 C 7.410156 -9.054688 6.628906 -9.234375 5.734375 -9.234375 L 2.734375 -9.234375 L 2.734375 -0.9375 Z M 5.734375 -0.9375 "/>
      </g>
    </g>
  </g>
  <g fill="#000000" fill-opacity="1" stroke="#000000" stroke-width="3.5" stroke-opacity="1" stroke-linejoin="round" stroke-linecap="round">
    <g transform="translate(172.237342, 189.572433)">
      <g>
        <path d="M 8.84375 -0.9375 L 8.84375 0 L 1.65625 0 L 1.65625 -10.171875 L 8.625 -10.171875 L 8.625 -9.234375 L 2.734375 -9.234375 L 2.734375 -5.625 L 7.984375 -5.625 L 7.984375 -4.703125 L 2.734375 -4.703125 L 2.734375 -0.9375 Z M 8.84375 -0.9375 "/>
      </g>
    </g>
  </g>
  <g fill="#000000" fill-opacity="1" stroke="#000000" stroke-width="3.5" stroke-opacity="1" stroke-linejoin="round" stroke-linecap="round">
    <g transform="translate(186.585571, 189.572433)">
      <g>
        <path d="M 10.15625 -10.171875 L 10.15625 0 L 9.265625 0 L 2.734375 -8.25 L 2.734375 0 L 1.65625 0 L 1.65625 -10.171875 L 2.546875 -10.171875 L 9.09375 -1.921875 L 9.09375 -10.171875 Z M 10.15625 -10.171875 "/>
      </g>
    </g>
  </g>
  <g fill="#000000" fill-opacity="1" stroke="#000000" stroke-width="3.5" stroke-opacity="1" stroke-linejoin="round" stroke-linecap="round">
    <g transform="translate(203.024613, 189.572433)">
      <g>
        <path d="M 3.625 -9.234375 L 0.0625 -9.234375 L 0.0625 -10.171875 L 8.28125 -10.171875 L 8.28125 -9.234375 L 4.703125 -9.234375 L 4.703125 0 L 3.625 0 Z M 3.625 -9.234375 "/>
      </g>
    </g>
  </g>
  <g fill="#000000" fill-opacity="1" stroke="#000000" stroke-width="3.5" stroke-opacity="1" stroke-linejoin="round" stroke-linecap="round">
    <g transform="translate(215.993493, 189.572433)">
      <g/>
    </g>
  </g>
  <g fill="#000000" fill-opacity="1" stroke="#000000" stroke-width="3.5" stroke-opacity="1" stroke-linejoin="round" stroke-linecap="round">
    <g transform="translate(224.432274, 189.572433)">
      <g>
        <path d="M 10.15625 -10.171875 L 10.15625 0 L 9.09375 0 L 9.09375 -4.6875 L 2.734375 -4.6875 L 2.734375 0 L 1.65625 0 L 1.65625 -10.171875 L 2.734375 -10.171875 L 2.734375 -5.640625 L 9.09375 -5.640625 L 9.09375 -10.171875 Z M 10.15625 -10.171875 "/>
      </g>
    </g>
  </g>
  <g fill="#000000" fill-opacity="1" stroke="#000000" stroke-width="3.5" stroke-opacity="1" stroke-linejoin="round" stroke-linecap="round">
    <g transform="translate(240.871322, 189.572433)">
      <g>
        <path d="M 5.75 0.09375 C 4.4375 0.09375 3.410156 -0.28125 2.671875 -1.03125 C 1.929688 -1.789062 1.5625 -2.894531 1.5625 -4.34375 L 1.5625 -10.171875 L 2.640625 -10.171875 L 2.640625 -4.390625 C 2.640625 -3.203125 2.90625 -2.316406 3.4375 -1.734375 C 3.976562 -1.160156 4.75 -0.875 5.75 -0.875 C 6.769531 -0.875 7.546875 -1.160156 8.078125 -1.734375 C 8.609375 -2.316406 8.875 -3.203125 8.875 -4.390625 L 8.875 -10.171875 L 9.921875 -10.171875 L 9.921875 -4.34375 C 9.921875 -2.894531 9.554688 -1.789062 8.828125 -1.03125 C 8.097656 -0.28125 7.070312 0.09375 5.75 0.09375 Z M 5.75 0.09375 "/>
      </g>
    </g>
  </g>
  <g fill="#000000" fill-opacity="1" stroke="#000000" stroke-width="3.5" stroke-opacity="1" stroke-linejoin="round" stroke-linecap="round">
    <g transform="translate(257.005453, 189.572433)">
      <g>
        <path d="M 8.0625 -5.25 C 8.726562 -5.101562 9.242188 -4.8125 9.609375 -4.375 C 9.972656 -3.945312 10.15625 -3.394531 10.15625 -2.71875 C 10.15625 -1.84375 9.832031 -1.171875 9.1875 -0.703125 C 8.539062 -0.234375 7.585938 0 6.328125 0 L 1.65625 0 L 1.65625 -10.171875 L 6.046875 -10.171875 C 7.179688 -10.171875 8.0625 -9.941406 8.6875 -9.484375 C 9.3125 -9.035156 9.625 -8.394531 9.625 -7.5625 C 9.625 -7 9.484375 -6.519531 9.203125 -6.125 C 8.929688 -5.726562 8.550781 -5.4375 8.0625 -5.25 Z M 2.734375 -9.28125 L 2.734375 -5.59375 L 5.96875 -5.59375 C 6.789062 -5.59375 7.425781 -5.75 7.875 -6.0625 C 8.320312 -6.375 8.546875 -6.832031 8.546875 -7.4375 C 8.546875 -8.039062 8.320312 -8.5 7.875 -8.8125 C 7.425781 -9.125 6.789062 -9.28125 5.96875 -9.28125 Z M 6.328125 -0.890625 C 7.234375 -0.890625 7.914062 -1.039062 8.375 -1.34375 C 8.84375 -1.65625 9.078125 -2.140625 9.078125 -2.796875 C 9.078125 -4.066406 8.160156 -4.703125 6.328125 -4.703125 L 2.734375 -4.703125 L 2.734375 -0.890625 Z M 6.328125 -0.890625 "/>
      </g>
    </g>
  </g>
</svg>